<svg id="visual" viewBox="0 0 1536 713.6" width="1536" height="713.6" xmlns="http://www.w3.org/2000/svg" xmlns:xlink="http://www.w3.org/1999/xlink" version="1.1"><rect x="0" y="0" width="1536" height="713.6" fill="#fff"></rect><defs><linearGradient id="grad1_0" x1="53.5%" y1="0%" x2="100%" y2="100%"><stop offset="6.95067264573991%" stop-color="#fe4f5a" stop-opacity="1"></stop><stop offset="93.0493273542601%" stop-color="#fe4f5a" stop-opacity="1"></stop></linearGradient></defs><defs><linearGradient id="grad1_1" x1="53.5%" y1="0%" x2="100%" y2="100%"><stop offset="6.95067264573991%" stop-color="#fe4f5a" stop-opacity="1"></stop><stop offset="93.0493273542601%" stop-color="#ffada9" stop-opacity="1"></stop></linearGradient></defs><defs><linearGradient id="grad1_2" x1="53.5%" y1="0%" x2="100%" y2="100%"><stop offset="6.95067264573991%" stop-color="#ffffff" stop-opacity="1"></stop><stop offset="93.0493273542601%" stop-color="#ffada9" stop-opacity="1"></stop></linearGradient></defs><defs><linearGradient id="grad2_0" x1="0%" y1="0%" x2="46.5%" y2="100%"><stop offset="6.95067264573991%" stop-color="#fe4f5a" stop-opacity="1"></stop><stop offset="93.0493273542601%" stop-color="#fe4f5a" stop-opacity="1"></stop></linearGradient></defs><defs><linearGradient id="grad2_1" x1="0%" y1="0%" x2="46.5%" y2="100%"><stop offset="6.95067264573991%" stop-color="#ffada9" stop-opacity="1"></stop><stop offset="93.0493273542601%" stop-color="#fe4f5a" stop-opacity="1"></stop></linearGradient></defs><defs><linearGradient id="grad2_2" x1="0%" y1="0%" x2="46.5%" y2="100%"><stop offset="6.95067264573991%" stop-color="#ffada9" stop-opacity="1"></stop><stop offset="93.0493273542601%" stop-color="#ffffff" stop-opacity="1"></stop></linearGradient></defs><g transform="translate(1536, 0)"><path d="M0 428.2C-72.6 413.8 -145.2 399.3 -211 365.5C-276.8 331.6 -335.7 278.2 -370.8 214.1C-405.9 149.9 -417 75 -428.2 0L0 0Z" fill="#ffd6d3"></path><path d="M0 285.4C-48.4 275.8 -96.8 266.2 -140.7 243.6C-184.5 221.1 -223.8 185.5 -247.2 142.7C-270.6 99.9 -278 50 -285.4 0L0 0Z" fill="#ff8280"></path><path d="M0 142.7C-24.2 137.9 -48.4 133.1 -70.3 121.8C-92.3 110.5 -111.9 92.7 -123.6 71.4C-135.3 50 -139 25 -142.7 0L0 0Z" fill="#fe4f5a"></path></g><g transform="translate(0, 713.6)"><path d="M0 -428.2C74.8 -416.9 149.7 -405.7 214.1 -370.8C278.5 -335.9 332.4 -277.2 366.3 -211.5C400.3 -145.8 414.2 -72.9 428.2 0L0 0Z" fill="#ffd6d3"></path><path d="M0 -285.4C49.9 -278 99.8 -270.5 142.7 -247.2C185.6 -223.9 221.6 -184.8 244.2 -141C266.8 -97.2 276.1 -48.6 285.4 0L0 0Z" fill="#ff8280"></path><path d="M0 -142.7C24.9 -139 49.9 -135.2 71.4 -123.6C92.8 -112 110.8 -92.4 122.1 -70.5C133.4 -48.6 138.1 -24.3 142.7 0L0 0Z" fill="#fe4f5a"></path></g></svg>