<svg id="visual" viewBox="0 0 1536 560" width="1536" height="560" xmlns="http://www.w3.org/2000/svg" xmlns:xlink="http://www.w3.org/1999/xlink" version="1.1"><path d="M0 390L36.5 387.3C73 384.7 146 379.3 219.2 371.2C292.3 363 365.7 352 438.8 362.3C512 372.7 585 404.3 658.2 418.7C731.3 433 804.7 430 877.8 421.5C951 413 1024 399 1097.2 385.8C1170.3 372.7 1243.7 360.3 1316.8 361C1390 361.7 1463 375.3 1499.5 382.2L1536 389L1536 561L1499.5 561C1463 561 1390 561 1316.8 561C1243.7 561 1170.3 561 1097.2 561C1024 561 951 561 877.8 561C804.7 561 731.3 561 658.2 561C585 561 512 561 438.8 561C365.7 561 292.3 561 219.2 561C146 561 73 561 36.5 561L0 561Z" fill="#3f1792" stroke-linecap="round" stroke-linejoin="miter"></path></svg>